<svg xmlns="http://www.w3.org/2000/svg" viewBox="0 0 48 48" fill="none">
  <defs>
    <linearGradient id="eclipse-blue" x1="8" y1="8" x2="39" y2="40" gradientUnits="userSpaceOnUse">
      <stop stop-color="#c3c3c3"/>
      <stop offset="1" stop-color="#626262"/>
    </linearGradient>
  </defs>
  <rect width="48" height="48" rx="14" fill="#232323"/>
  <path d="M9 18v-4a5 5 0 0 1 5-5h4M30 9h4a5 5 0 0 1 5 5v4M39 30v4a5 5 0 0 1-5 5h-4M18 39h-4a5 5 0 0 1-5-5v-4" stroke="url(#eclipse-blue)" stroke-width="2.8" stroke-linecap="round"/>
  <path d="M31.8 13.5a14 14 0 1 0 2.7 19.7" stroke="url(#eclipse-blue)" stroke-width="4.2" stroke-linecap="round"/>
  <path d="m20 17 12 7-12 7V17Z" fill="#949494" stroke="#ffffff" stroke-width="1.5" stroke-linejoin="round"/>
</svg>
